# This file uses centimeters as units for non-parametric coordinates.

mtllib simple_box.mtl
g default
v -0.500000 -0.500000 0.500000
v 0.500000 -0.500000 0.500000
v -0.500000 0.500000 0.500000
v 0.500000 0.500000 0.500000
v -0.500000 0.500000 -0.500000
v 0.500000 0.500000 -0.500000
v -0.500000 -0.500000 -0.500000
v 0.500000 -0.500000 -0.500000
vt 0.375000 0.000000
vt 0.625000 0.000000
vt 0.375000 0.250000
vt 0.625000 0.250000
vt 0.375000 0.500000
vt 0.625000 0.500000
vt 0.375000 0.750000
vt 0.625000 0.750000
vt 0.375000 1.000000
vt 0.625000 1.000000
vt 0.875000 0.000000
vt 0.875000 0.250000
vt 0.125000 0.000000
vt 0.125000 0.250000
vn 0.000000 0.000000 1.000000
vn 0.000000 0.000000 1.000000
vn 0.000000 0.000000 1.000000
vn 0.000000 1.000000 0.000000
vn 0.000000 1.000000 0.000000
vn 0.000000 1.000000 0.000000
vn 0.000000 0.000000 -1.000000
vn 0.000000 0.000000 -1.000000
vn 0.000000 0.000000 -1.000000
vn 0.000000 -1.000000 0.000000
vn 0.000000 -1.000000 0.000000
vn 0.000000 -1.000000 0.000000
vn 1.000000 0.000000 0.000000
vn 1.000000 0.000000 0.000000
vn 1.000000 0.000000 0.000000
vn -1.000000 0.000000 0.000000
vn -1.000000 0.000000 0.000000
vn -1.000000 0.000000 0.000000
vn 0.000000 1.000000 0.000000
vn -1.000000 0.000000 0.000000
vn 0.000000 0.000000 -1.000000
vn 1.000000 0.000000 0.000000
vn 0.000000 0.000000 1.000000
vn 0.000000 -1.000000 0.000000
s 1
g pCube1
usemtl initialShadingGroup
f 1/1/1 2/2/2 4/4/3
s 2
f 3/3/4 4/4/5 5/5/6
s 3
f 5/5/7 6/6/8 8/8/9
s 4
f 1/9/10 8/8/11 2/10/12
s 5
f 2/2/13 6/12/14 4/4/15
s 6
f 7/13/16 1/1/17 3/3/18
s 2
f 5/5/6 4/4/5 6/6/19
s 6
f 7/13/16 3/3/18 5/14/20
s 3
f 5/5/7 8/8/9 7/7/21
s 5
f 2/2/13 8/11/22 6/12/14
s 1
f 1/1/1 4/4/3 3/3/23
s 4
f 7/7/24 8/8/11 1/9/10
